<?xml version="1.0" standalone="no"?>
<!DOCTYPE svg PUBLIC "-//W3C//DTD SVG 20010904//EN"
 "http://www.w3.org/TR/2001/REC-SVG-20010904/DTD/svg10.dtd">
<svg version="1.0" xmlns="http://www.w3.org/2000/svg"
 width="551.000000pt" height="551.000000pt" viewBox="0 0 551.000000 551.000000"
 preserveAspectRatio="xMidYMid meet">
<metadata>
Created by potrace 1.11, written by Peter Selinger 2001-2013
</metadata>
<g transform="translate(0.000000,551.000000) scale(0.100000,-0.100000)"
fill="#000000" stroke="none">
<path d="M3105 4955 c-303 -48 -561 -189 -745 -407 -121 -144 -138 -174 -412
-736 -59 -121 -122 -220 -285 -444 -166 -228 -215 -302 -280 -425 -31 -60 -79
-133 -106 -163 -69 -78 -142 -189 -167 -257 -53 -140 -12 -267 106 -326 17 -9
34 -25 37 -37 6 -23 21 -14 -278 -175 -533 -288 -701 -400 -721 -480 -16 -63
17 -127 79 -156 69 -31 189 -20 345 32 47 16 93 22 175 23 84 2 137 9 213 29
97 26 346 106 406 132 29 12 31 10 116 -75 130 -129 234 -193 404 -249 38 -13
68 -26 68 -31 0 -5 22 -33 50 -63 44 -48 116 -95 173 -111 15 -5 17 -15 15
-73 l-3 -68 -103 4 c-115 4 -142 -7 -142 -58 0 -22 -6 -29 -32 -36 -44 -13
-58 -53 -34 -90 20 -30 2 -29 206 -5 l105 12 84 -31 c101 -37 156 -68 222
-127 58 -51 88 -56 118 -17 29 35 20 58 -42 115 -57 53 -51 57 43 28 36 -11
75 -20 87 -20 58 0 71 80 18 111 -52 30 -186 60 -297 66 l-108 6 0 83 c0 82 1
84 24 84 43 0 150 39 201 73 49 34 53 35 212 46 89 6 203 19 254 27 65 11 98
13 114 6 12 -6 43 -14 69 -17 l46 -7 0 -64 c0 -35 -4 -64 -8 -64 -5 0 -27 9
-50 20 -50 24 -119 26 -151 4 -19 -14 -22 -23 -18 -55 5 -37 4 -39 -28 -45
-58 -11 -89 -66 -58 -102 24 -28 34 -29 124 -13 41 7 113 12 160 10 76 -4 93
-8 179 -51 52 -26 121 -70 154 -98 45 -39 63 -49 80 -44 66 20 66 71 0 133
-27 26 -60 54 -74 64 l-25 18 45 -6 c25 -3 75 -20 113 -37 57 -26 71 -29 92
-20 28 13 43 57 28 81 -18 28 -75 61 -147 84 -56 17 -95 22 -183 22 l-113 0 0
36 c0 20 3 64 7 99 6 62 6 62 50 81 107 46 228 148 280 236 15 26 63 81 106
122 400 382 646 1012 623 1591 -3 85 -12 187 -19 225 -7 40 -10 90 -6 115 47
312 -18 647 -162 840 -18 25 -52 75 -74 111 -202 335 -569 532 -980 528 -55
-1 -136 -7 -180 -14z m460 -143 c268 -73 501 -247 602 -446 14 -28 43 -73 64
-101 52 -69 105 -186 129 -287 28 -111 36 -298 20 -434 -11 -96 -10 -122 5
-212 24 -141 17 -448 -13 -607 -47 -244 -129 -461 -266 -699 -31 -54 -45 -75
-82 -123 -13 -17 -14 -17 -7 1 4 11 2 17 -3 13 -5 -3 -10 3 -10 13 0 10 4 17
7 14 4 -2 11 1 15 7 3 6 2 14 -4 18 -5 3 -11 15 -13 25 -2 10 -12 24 -23 30
-34 21 -76 67 -76 86 0 13 -14 23 -47 35 -83 29 -93 34 -91 45 5 17 -92 47
-178 55 -43 4 -81 10 -84 15 -3 4 -22 10 -42 14 -30 5 -38 4 -38 -7 0 -11 -20
-16 -77 -21 -81 -7 -160 -29 -203 -56 -14 -9 -43 -22 -65 -29 -58 -20 -89 -42
-73 -52 9 -6 4 -11 -15 -18 -16 -6 -33 -11 -38 -11 -5 0 -9 -7 -9 -16 0 -9 -6
-14 -13 -11 -19 7 -40 -8 -43 -30 -2 -9 -8 -19 -13 -21 -6 -2 -11 -9 -11 -16
0 -7 -10 -18 -23 -25 -13 -7 -28 -26 -35 -43 -6 -16 -15 -27 -20 -24 -12 7
-39 -32 -48 -70 -4 -16 -17 -47 -29 -69 -12 -22 -28 -74 -34 -115 -7 -41 -16
-79 -22 -85 -5 -5 -9 -26 -9 -46 0 -21 -5 -39 -12 -41 -7 -3 -8 -9 -2 -19 5
-8 9 -30 10 -49 1 -19 7 -36 13 -38 6 -2 11 -11 11 -19 0 -11 -5 -9 -18 7 -17
21 -18 21 -17 -28 0 -28 3 -48 8 -45 4 2 4 9 1 15 -4 6 -2 8 4 4 5 -3 20 6 32
21 15 21 18 22 10 6 -14 -30 -55 -73 -69 -73 -6 0 -11 -6 -11 -13 0 -18 -82
-69 -103 -63 -9 2 -15 1 -12 -4 8 -13 -24 -20 -93 -19 -83 1 -118 13 -178 63
-51 43 -91 118 -101 194 -3 25 -14 53 -25 64 -42 42 -108 7 -108 -58 0 -32 -2
-35 -22 -28 -91 27 -188 92 -288 194 -88 88 -155 185 -210 302 -34 74 -80 213
-80 245 0 8 35 12 128 12 70 0 151 4 180 10 77 15 222 66 289 100 330 170 603
538 603 814 0 109 -16 154 -75 214 -71 70 -130 88 -275 80 -157 -7 -416 -83
-440 -127 -17 -31 -12 -68 12 -84 30 -21 44 -20 116 9 121 49 257 77 357 73
102 -3 132 -18 161 -77 25 -52 15 -167 -25 -261 -63 -154 -214 -337 -361 -441
-73 -52 -208 -124 -217 -115 -3 3 -12 -2 -21 -10 -8 -9 -23 -13 -33 -11 -11 3
-19 1 -19 -5 0 -5 -4 -7 -9 -4 -5 4 -11 2 -13 -4 -1 -5 -22 -11 -46 -13 -23
-3 -45 -7 -49 -11 -8 -8 -196 -8 -257 0 -25 4 -46 11 -46 16 0 6 11 7 26 4 18
-5 24 -3 19 5 -4 6 -18 9 -30 7 -13 -3 -34 1 -46 8 -22 12 -22 13 -4 14 19 1
19 1 2 11 -10 6 -25 8 -33 5 -8 -3 -14 -1 -14 5 0 6 -5 7 -11 4 -7 -5 -4 -14
8 -28 l18 -22 -22 19 c-21 18 -22 20 -6 50 21 42 21 42 37 21 11 -15 19 -16
52 -9 l39 8 -38 4 c-21 2 -41 10 -44 18 -7 19 -30 18 -41 -3 -8 -13 -10 -11
-9 12 0 19 2 23 8 14 10 -16 12 -8 3 15 -8 20 -36 8 -30 -13 3 -9 -1 -27 -9
-41 l-13 -25 1 27 c1 14 6 24 11 20 5 -3 7 2 3 11 -21 56 92 216 286 405 60
59 62 65 42 127 -6 21 67 134 265 405 103 141 210 317 265 435 110 235 230
469 276 540 64 97 222 258 303 310 132 84 296 150 436 174 92 16 383 6 465
-17z m-2333 -2454 c-7 -7 -12 -8 -12 -2 0 14 12 26 19 19 2 -3 -1 -11 -7 -17z
m98 -58 c18 -12 2 -12 -25 0 -13 6 -15 9 -5 9 8 0 22 -4 30 -9z m2673 -414 c7
-18 -18 -42 -28 -26 -4 6 -1 9 7 8 8 -2 12 4 10 15 -3 21 4 23 11 3z m-1275
-523 c-6 -7 -12 -13 -13 -13 -2 0 -5 6 -8 13 -3 7 3 13 14 13 13 0 15 -3 7
-13z"/>
<path d="M3885 4498 c-11 -6 -34 -23 -50 -39 l-31 -29 -35 26 c-53 37 -131 43
-195 15 -29 -13 -74 -23 -110 -25 -45 -2 -69 -8 -89 -24 -15 -12 -33 -22 -39
-22 -6 0 -4 5 4 10 30 19 1 9 -58 -20 -90 -44 -142 -122 -142 -209 0 -47 39
-129 78 -166 18 -17 32 -39 32 -50 1 -35 35 -98 84 -152 82 -90 278 -202 355
-203 189 -1 307 326 192 535 -15 27 -26 60 -23 72 3 21 7 22 61 16 71 -7 113
13 142 69 51 99 -11 208 -116 208 -22 0 -49 -6 -60 -12z m-159 -93 c36 -15 73
-76 74 -123 l0 -23 -33 25 c-45 35 -111 56 -174 58 -56 2 -59 4 -40 28 39 50
106 63 173 35z m-296 -74 c25 -7 24 -8 -13 -25 -71 -34 -133 -111 -162 -200
-5 -18 -7 -19 -23 -2 -26 25 -23 126 4 163 40 55 125 84 194 64z m189 -122
c59 -13 116 -60 148 -123 51 -98 31 -268 -39 -326 -30 -25 -50 -25 -101 1
-128 65 -228 156 -247 225 -30 107 55 212 190 233 3 0 25 -4 49 -10z"/>
<path d="M3516 4491 c-3 -5 2 -15 12 -22 16 -13 16 -13 2 5 -14 18 -13 19 3
13 11 -4 16 -3 12 3 -8 12 -22 13 -29 1z"/>
<path d="M2750 4218 c-61 -31 -90 -77 -90 -142 0 -96 61 -156 159 -156 93 0
161 66 161 157 -1 80 -82 163 -160 163 -14 0 -46 -10 -70 -22z"/>
<path d="M1340 2350 c0 -6 7 -10 15 -10 8 0 15 2 15 4 0 2 -7 6 -15 10 -8 3
-15 1 -15 -4z"/>
<path d="M1363 2323 c9 -2 23 -2 30 0 6 3 -1 5 -18 5 -16 0 -22 -2 -12 -5z"/>
<path d="M3598 2273 c7 -3 16 -2 19 1 4 3 -2 6 -13 5 -11 0 -14 -3 -6 -6z"/>
<path d="M4020 1929 c0 -5 5 -7 10 -4 6 3 10 8 10 11 0 2 -4 4 -10 4 -5 0 -10
-5 -10 -11z"/>
</g>
</svg>
